<mxfile host="app.diagrams.net" modified="2023-09-16T04:04:18.616Z" agent="Mozilla/5.0 (Windows NT 10.0; Win64; x64) AppleWebKit/537.36 (KHTML, like Gecko) Chrome/116.0.0.0 Safari/537.36" version="21.7.4" etag="kQG-C7_8I-p0UILaUfK8" type="github">
  <diagram name="PÃ¡gina-1" id="ZvpO2JmUUbbatIH5oHCg">
    <mxGraphModel>
      <root>
        <mxCell id="0" />
        <mxCell id="1" parent="0" />
      </root>
    </mxGraphModel>
  </diagram>
</mxfile>
